<svg width="22" height="22" viewBox="0 0 22 22" fill="none" xmlns="http://www.w3.org/2000/svg">
<path d="M18.2968 8.2132C17.6826 7.53487 16.7568 7.1407 15.4734 7.0032V6.30653C15.4734 5.0507 14.9418 3.8407 14.0068 2.99737C13.0626 2.1357 11.8343 1.73237 10.5601 1.85153C8.36926 2.06237 6.52676 4.17987 6.52676 6.47153V7.0032C5.24343 7.1407 4.31759 7.53487 3.70343 8.2132C2.81426 9.2032 2.84176 10.5232 2.94259 11.4399L3.58426 16.5457C3.77676 18.3332 4.50093 20.1665 8.44259 20.1665H13.5576C17.4993 20.1665 18.2234 18.3332 18.4159 16.5549L19.0576 11.4307C19.1584 10.5232 19.1768 9.2032 18.2968 8.2132ZM10.6884 3.1257C11.6051 3.0432 12.4759 3.32737 13.1543 3.94153C13.8234 4.54653 14.1993 5.4082 14.1993 6.30653V6.9482H7.80093V6.47153C7.80093 4.83987 9.14843 3.27237 10.6884 3.1257ZM7.71843 12.054H7.70926C7.20509 12.054 6.79259 11.6415 6.79259 11.1374C6.79259 10.6332 7.20509 10.2207 7.70926 10.2207C8.22259 10.2207 8.63509 10.6332 8.63509 11.1374C8.63509 11.6415 8.22259 12.054 7.71843 12.054ZM14.1351 12.054H14.1259C13.6218 12.054 13.2093 11.6415 13.2093 11.1374C13.2093 10.6332 13.6218 10.2207 14.1259 10.2207C14.6393 10.2207 15.0518 10.6332 15.0518 11.1374C15.0518 11.6415 14.6393 12.054 14.1351 12.054Z" fill="#253E5E"/>
</svg>
