<svg width="20" height="20" viewBox="0 0 20 20" fill="none" xmlns="http://www.w3.org/2000/svg">
<path d="M9.99984 1.66699C5.40817 1.66699 1.6665 5.40866 1.6665 10.0003C1.6665 14.592 5.40817 18.3337 9.99984 18.3337C14.5915 18.3337 18.3332 14.592 18.3332 10.0003C18.3332 5.40866 14.5915 1.66699 9.99984 1.66699ZM13.3832 9.39199L10.4415 12.3337C10.3165 12.4587 10.1582 12.517 9.99984 12.517C9.8415 12.517 9.68317 12.4587 9.55817 12.3337L6.6165 9.39199C6.37484 9.15033 6.37484 8.75033 6.6165 8.50866C6.85817 8.26699 7.25817 8.26699 7.49984 8.50866L9.99984 11.0087L12.4998 8.50866C12.7415 8.26699 13.1415 8.26699 13.3832 8.50866C13.6248 8.75033 13.6248 9.14199 13.3832 9.39199Z" fill="#20AEEA"/>
</svg>
