<svg width="10" height="10" viewBox="0 0 10 10" fill="none" xmlns="http://www.w3.org/2000/svg">
<path d="M1.25147 9.23107C1.12808 9.23107 1.00468 9.18384 0.910212 9.09034C0.722231 8.90237 0.722231 8.59681 0.910212 8.40885L8.40823 0.911469C8.59621 0.723504 8.9018 0.723504 9.08978 0.911469C9.27776 1.09943 9.27776 1.405 9.08978 1.59296L1.59176 9.09034C1.49825 9.18384 1.37486 9.23107 1.25147 9.23107Z" fill="white"/>
<path d="M8.74949 9.23107C8.62609 9.23107 8.5027 9.18384 8.40823 9.09034L0.910212 1.592C0.722231 1.40403 0.722231 1.09847 0.910212 0.910505C1.09819 0.72254 1.40378 0.72254 1.59176 0.910505L9.08978 8.40788C9.27776 8.59585 9.27776 8.90141 9.08978 9.08937C8.99627 9.18384 8.87288 9.23107 8.74949 9.23107Z" fill="white"/>
</svg>
