<svg width="20" height="20" viewBox="0 0 20 20" fill="none" xmlns="http://www.w3.org/2000/svg">
<path d="M18 12.1981V18H14.5561V12.5519C14.5561 11.2075 14.0538 10.2877 12.8341 10.2877C11.9013 10.2877 11.3274 10.9245 11.1121 11.4906C11.0404 11.7028 10.9686 11.9858 10.9686 12.3396V18H7.52466C7.52466 18 7.59641 8.80189 7.52466 7.88208H10.9686V9.29717C11.3991 8.58962 12.2601 7.59906 14.0538 7.59906C16.278 7.59906 18 9.08491 18 12.1981ZM3.93722 3C2.78924 3 2 3.7783 2 4.76887C2 5.75943 2.71749 6.53774 3.86547 6.53774C5.0852 6.53774 5.80269 5.75943 5.80269 4.76887C5.87444 3.70755 5.15695 3 3.93722 3ZM2.21525 18H5.65919V7.88208H2.21525V18Z" fill="white"/>
</svg>
