<svg width="36" height="36" viewBox="0 0 36 36" fill="none" xmlns="http://www.w3.org/2000/svg">
  <path
    d="M28.5 13.5C28.5 15.675 27.855 17.67 26.745 19.335C25.125 21.735 22.56 23.43 19.575 23.865C19.065 23.955 18.54 24 18 24C17.46 24 16.935 23.955 16.425 23.865C13.44 23.43 10.875 21.735 9.255 19.335C8.145 17.67 7.5 15.675 7.5 13.5C7.5 7.695 12.195 3 18 3C23.805 3 28.5 7.695 28.5 13.5Z"
    stroke="white" stroke-linecap="round" stroke-linejoin="round" />
  <path
    d="M31.8746 27.7051L29.3996 28.2901C28.8446 28.4251 28.4096 28.8451 28.2896 29.4001L27.7646 31.6051C27.4796 32.8051 25.9496 33.1651 25.1546 32.2201L17.9996 24.0001L10.8446 32.2351C10.0496 33.1801 8.51963 32.8201 8.23463 31.6201L7.70963 29.4151C7.57463 28.8601 7.13963 28.4251 6.59963 28.3051L4.12463 27.7201C2.98463 27.4501 2.57963 26.0251 3.40463 25.2001L9.25463 19.3501C10.8746 21.7501 13.4396 23.4451 16.4246 23.8801C16.9346 23.9701 17.4596 24.0151 17.9996 24.0151C18.5396 24.0151 19.0646 23.9701 19.5746 23.8801C22.5596 23.4451 25.1246 21.7501 26.7446 19.3501L32.5946 25.2001C33.4196 26.0101 33.0146 27.4351 31.8746 27.7051Z"
    stroke="white" stroke-linecap="round" stroke-linejoin="round" />
  <path
    d="M18.8709 8.97L19.7559 10.74C19.8759 10.98 20.1909 11.22 20.4759 11.265L22.0809 11.535C23.1009 11.7 23.3409 12.45 22.6059 13.185L21.3609 14.43C21.1509 14.64 21.0309 15.045 21.1059 15.345L21.4659 16.89C21.7509 18.105 21.1059 18.585 20.0259 17.94L18.5259 17.055C18.2559 16.89 17.8059 16.89 17.5359 17.055L16.0359 17.94C14.9559 18.57 14.3109 18.105 14.5959 16.89L14.9559 15.345C15.0159 15.06 14.9109 14.64 14.7009 14.43L13.4559 13.185C12.7209 12.45 12.9609 11.715 13.9809 11.535L15.5859 11.265C15.8559 11.22 16.1709 10.98 16.2909 10.74L17.1759 8.97C17.6109 8.01 18.3909 8.01 18.8709 8.97Z"
    stroke="white" stroke-linecap="round" stroke-linejoin="round" />
</svg>