<svg width="22" height="22" viewBox="0 0 22 22" fill="none" xmlns="http://www.w3.org/2000/svg">
<path d="M14.8408 1.83301H7.15908C3.82242 1.83301 1.83325 3.82217 1.83325 7.15884V14.8405C1.83325 18.1772 3.82242 20.1663 7.15908 20.1663H14.8408C18.1774 20.1663 20.1666 18.1772 20.1666 14.8405V7.15884C20.1666 3.82217 18.1774 1.83301 14.8408 1.83301ZM9.13909 13.658L7.07658 15.7205C6.93909 15.858 6.76492 15.9222 6.59075 15.9222C6.41658 15.9222 6.23325 15.858 6.10492 15.7205L5.41742 15.033C5.14242 14.7672 5.14242 14.3272 5.41742 14.0613C5.68325 13.7955 6.11408 13.7955 6.38908 14.0613L6.59075 14.263L8.16742 12.6863C8.43325 12.4205 8.86409 12.4205 9.13909 12.6863C9.40492 12.9522 9.40492 13.3922 9.13909 13.658ZM9.13909 7.24134L7.07658 9.30384C6.93909 9.44134 6.76492 9.50551 6.59075 9.50551C6.41658 9.50551 6.23325 9.44134 6.10492 9.30384L5.41742 8.61634C5.14242 8.35051 5.14242 7.91051 5.41742 7.64467C5.68325 7.37884 6.11408 7.37884 6.38908 7.64467L6.59075 7.84634L8.16742 6.26967C8.43325 6.00384 8.86409 6.00384 9.13909 6.26967C9.40492 6.53551 9.40492 6.97551 9.13909 7.24134ZM16.0966 15.2347H11.2841C10.9083 15.2347 10.5966 14.923 10.5966 14.5472C10.5966 14.1713 10.9083 13.8597 11.2841 13.8597H16.0966C16.4816 13.8597 16.7841 14.1713 16.7841 14.5472C16.7841 14.923 16.4816 15.2347 16.0966 15.2347ZM16.0966 8.81801H11.2841C10.9083 8.81801 10.5966 8.50634 10.5966 8.13051C10.5966 7.75467 10.9083 7.44301 11.2841 7.44301H16.0966C16.4816 7.44301 16.7841 7.75467 16.7841 8.13051C16.7841 8.50634 16.4816 8.81801 16.0966 8.81801Z" fill="#253E5E"/>
</svg>
