<svg width="22" height="22" viewBox="0 0 22 22" fill="none" xmlns="http://www.w3.org/2000/svg">
<path d="M10.9999 1.83301C8.59825 1.83301 6.64575 3.78551 6.64575 6.18717C6.64575 8.54301 8.48825 10.4497 10.8899 10.5322C10.9633 10.523 11.0366 10.523 11.0916 10.5322C11.1099 10.5322 11.1191 10.5322 11.1374 10.5322C11.1466 10.5322 11.1466 10.5322 11.1558 10.5322C13.5024 10.4497 15.3449 8.54301 15.3541 6.18717C15.3541 3.78551 13.4016 1.83301 10.9999 1.83301Z" fill="#253E5E"/>
<path d="M15.6566 12.9711C13.0991 11.2661 8.9283 11.2661 6.35246 12.9711C5.1883 13.7503 4.54663 14.8045 4.54663 15.932C4.54663 17.0595 5.1883 18.1045 6.3433 18.8745C7.62663 19.7361 9.3133 20.167 11 20.167C12.6866 20.167 14.3733 19.7361 15.6566 18.8745C16.8116 18.0953 17.4533 17.0503 17.4533 15.9136C17.4441 14.7861 16.8116 13.7411 15.6566 12.9711Z" fill="#253E5E"/>
</svg>
