<svg width="140" height="20" viewBox="0 0 140 20" fill="none" xmlns="http://www.w3.org/2000/svg">
<path d="M11.5843 2.15684L13.1975 5.40981C13.4174 5.86264 14.004 6.29698 14.499 6.38016L17.4228 6.86995C19.2926 7.18416 19.7326 8.55188 18.3852 9.90113L16.1121 12.193C15.7272 12.5811 15.5164 13.3297 15.6355 13.8657L16.2863 16.7028C16.7996 18.9485 15.6172 19.8171 13.6466 18.6435L10.9061 17.0078C10.4111 16.712 9.59537 16.712 9.09126 17.0078L6.35073 18.6435C4.38928 19.8171 3.19774 18.9392 3.71102 16.7028L4.36178 13.8657C4.48094 13.3297 4.27013 12.5811 3.88517 12.193L1.61209 9.90113C0.273901 8.55188 0.704687 7.18416 2.57448 6.86995L5.49832 6.38016C5.9841 6.29698 6.5707 5.86264 6.79068 5.40981L8.40384 2.15684C9.28374 0.391731 10.7136 0.391731 11.5843 2.15684Z" fill="#20AEEA"/>
<path d="M41.5843 2.15684L43.1975 5.40981C43.4174 5.86264 44.004 6.29698 44.499 6.38016L47.4228 6.86995C49.2926 7.18416 49.7326 8.55188 48.3852 9.90113L46.1121 12.193C45.7272 12.5811 45.5164 13.3297 45.6355 13.8657L46.2863 16.7028C46.7996 18.9485 45.6172 19.8171 43.6466 18.6435L40.9061 17.0078C40.4111 16.712 39.5954 16.712 39.0913 17.0078L36.3507 18.6435C34.3893 19.8171 33.1977 18.9392 33.711 16.7028L34.3618 13.8657C34.4809 13.3297 34.2701 12.5811 33.8852 12.193L31.6121 9.90113C30.2739 8.55188 30.7047 7.18416 32.5745 6.86995L35.4983 6.38016C35.9841 6.29698 36.5707 5.86264 36.7907 5.40981L38.4038 2.15684C39.2837 0.391731 40.7136 0.391731 41.5843 2.15684Z" fill="#20AEEA"/>
<path d="M71.5843 2.15684L73.1975 5.40981C73.4174 5.86264 74.004 6.29698 74.499 6.38016L77.4228 6.86995C79.2926 7.18416 79.7326 8.55188 78.3852 9.90113L76.1121 12.193C75.7272 12.5811 75.5164 13.3297 75.6355 13.8657L76.2863 16.7028C76.7996 18.9485 75.6172 19.8171 73.6466 18.6435L70.9061 17.0078C70.4111 16.712 69.5954 16.712 69.0913 17.0078L66.3507 18.6435C64.3893 19.8171 63.1977 18.9392 63.711 16.7028L64.3618 13.8657C64.4809 13.3297 64.2701 12.5811 63.8852 12.193L61.6121 9.90113C60.2739 8.55188 60.7047 7.18416 62.5745 6.86995L65.4983 6.38016C65.9841 6.29698 66.5707 5.86264 66.7907 5.40981L68.4038 2.15684C69.2837 0.391731 70.7136 0.391731 71.5843 2.15684Z" fill="#20AEEA"/>
<path d="M101.584 2.15684L103.197 5.40981C103.417 5.86264 104.004 6.29698 104.499 6.38016L107.423 6.86995C109.293 7.18416 109.733 8.55188 108.385 9.90113L106.112 12.193C105.727 12.5811 105.516 13.3297 105.636 13.8657L106.286 16.7028C106.8 18.9485 105.617 19.8171 103.647 18.6435L100.906 17.0078C100.411 16.712 99.5954 16.712 99.0913 17.0078L96.3507 18.6435C94.3893 19.8171 93.1977 18.9392 93.711 16.7028L94.3618 13.8657C94.4809 13.3297 94.2701 12.5811 93.8852 12.193L91.6121 9.90113C90.2739 8.55188 90.7047 7.18416 92.5745 6.86995L95.4983 6.38016C95.9841 6.29698 96.5707 5.86264 96.7907 5.40981L98.4038 2.15684C99.2837 0.391731 100.714 0.391731 101.584 2.15684Z" fill="#20AEEA"/>
<path d="M131.584 2.15684L133.197 5.40981C133.417 5.86264 134.004 6.29698 134.499 6.38016L137.423 6.86995C139.293 7.18416 139.733 8.55188 138.385 9.90113L136.112 12.193C135.727 12.5811 135.516 13.3297 135.636 13.8657L136.286 16.7028C136.8 18.9485 135.617 19.8171 133.647 18.6435L130.906 17.0078C130.411 16.712 129.595 16.712 129.091 17.0078L126.351 18.6435C124.389 19.8171 123.198 18.9392 123.711 16.7028L124.362 13.8657C124.481 13.3297 124.27 12.5811 123.885 12.193L121.612 9.90113C120.274 8.55188 120.705 7.18416 122.574 6.86995L125.498 6.38016C125.984 6.29698 126.571 5.86264 126.791 5.40981L128.404 2.15684C129.284 0.391731 130.714 0.391731 131.584 2.15684Z" fill="#E1E1E1"/>
</svg>
