<svg width="36" height="36" viewBox="0 0 36 36" fill="none" xmlns="http://www.w3.org/2000/svg">
<path d="M4.51562 16.8301V23.5651C4.51562 30.3001 7.21563 33.0001 13.9506 33.0001H22.0356C28.7706 33.0001 31.4706 30.3001 31.4706 23.5651V16.8301" stroke="white" stroke-linecap="round" stroke-linejoin="round"/>
<path d="M18.0007 18C20.7457 18 22.7707 15.765 22.5007 13.02L21.5107 3H14.5057L13.5007 13.02C13.2307 15.765 15.2557 18 18.0007 18Z" stroke="white" stroke-linecap="round" stroke-linejoin="round"/>
<path d="M27.4642 18C30.4942 18 32.7142 15.54 32.4142 12.525L31.9942 8.4C31.4542 4.5 29.9542 3 26.0242 3H21.4492L22.4992 13.515C22.7542 15.99 24.9892 18 27.4642 18Z" stroke="white" stroke-linecap="round" stroke-linejoin="round"/>
<path d="M8.45958 18C10.9346 18 13.1696 15.99 13.4096 13.515L13.7396 10.2L14.4596 3H9.88458C5.95458 3 4.45458 4.5 3.91458 8.4L3.50958 12.525C3.20958 15.54 5.42958 18 8.45958 18Z" stroke="white" stroke-linecap="round" stroke-linejoin="round"/>
<path d="M18 25.5C15.495 25.5 14.25 26.745 14.25 29.25V33H21.75V29.25C21.75 26.745 20.505 25.5 18 25.5Z" stroke="white" stroke-linecap="round" stroke-linejoin="round"/>
</svg>
